<?xml version="1.0" encoding="utf-8"?>
<!-- Generator: Adobe Illustrator 22.0.1, SVG Export Plug-In . SVG Version: 6.00 Build 0)  -->
<svg version="1.1" id="Layer_1" xmlns="http://www.w3.org/2000/svg" xmlns:xlink="http://www.w3.org/1999/xlink" x="0px" y="0px"
	 viewBox="0 0 612 792" style="enable-background:new 0 0 612 792;" xml:space="preserve">
<style type="text/css">
	.st0{fill:#80A0D3;}
	.st1{fill:#F7B9D4;}
	.st2{fill:#EE2A7B;}
	.st3{fill:#DA1C5C;}
</style>
<g>
	<path class="st0" d="M282.4,377c2.6-4.5,5.1-8.9,7.7-13.4c4.4-7.4,8.9-14.8,13.1-22.3c10.3-18.3,20.4-36.8,30.6-55.1
		c4.5-8.1,9.1-16.3,13.7-24.3c7.8-13.4,15.5-26.8,23.5-40.1c9-15.2,18.3-30.2,27.4-45.3c2-3.4,3.9-6.8,5.8-10.2
		c0.3,0.1,0.7,0.3,1,0.4c-0.5,2.9-0.9,5.8-1.6,8.7c-3.7,14.3-7.7,28.5-11.3,42.7c-2.6,10.3-4.8,20.7-7.4,31
		c-4.4,17.8-9,35.5-13.4,53.3c-3,12.2-6.1,24.4-8.5,36.7c-1,4.9-3.7,7.3-7.7,9c-17.2,7.1-34.4,14.2-51.6,21.2
		c-6.9,2.8-13.8,5.6-20.7,8.4C282.8,377.4,282.6,377.2,282.4,377z"/>
	<path class="st1" d="M357.5,398.7c50.8-23,101.2-45.8,151.5-68.5c0.2,0.4,0.5,0.7,0.7,1.1c-2.3,2.2-4.7,4.3-7,6.5
		c-10.2,9.9-20.3,19.8-30.5,29.7c-8.1,8-16.3,15.9-24.3,23.9c-15.4,15.4-30.8,30.7-46.1,46.2c-5.5,5.6-5.2,5.5-10.3-0.3
		c-7.5-8.5-15.5-16.6-23.1-25.1C364.7,408,361.3,403.4,357.5,398.7z"/>
	<path class="st1" d="M77.5,246.9c12.3,0.4,24,0.9,35.8,1.2c17.3,0.4,34.6,0.5,51.8,1.2c18.4,0.7,36.8,1.9,55.2,3.1
		c13.6,0.9,27.2,2.2,40.8,3.3c0.6,0,1.2,0.2,2.7,0.6c-1.7,0.7-2.6,1.1-3.4,1.3c-18.5,4.7-37.1,9.3-55.7,14
		c-13.7,3.4-27.5,6.9-41.2,10.4c-17.1,4.4-34.2,8.7-51.2,13.3c-3.1,0.8-4.8,0-6.3-2.6c-7-11.8-14.2-23.6-21.4-35.3
		C82.5,253.7,79.9,250.4,77.5,246.9z"/>
	<path class="st1" d="M398.4,160c-39.2,61.7-73.8,126.3-115.3,187.5c-0.1-1.3-0.3-2-0.2-2.6c5-22.9,10-45.8,14.9-68.6
		c1.4-6.7,2.7-13.3,4-20c0-0.1,0.1-0.2,0-0.3c-1.7-7.9,4.3-11.8,8.9-15.9c9.8-8.8,20.3-17,29.9-25.9c13.3-12.4,26.2-25.3,39.3-37.9
		c5.1-5,10.2-10,15.4-15c0.7-0.6,1.4-1.2,2.1-1.8C397.8,159.6,398.1,159.8,398.4,160z"/>
	<path class="st1" d="M135.1,393.2c39.7,0.9,79.5,1.9,119.2,2.8c0.2,0.4,0.4,0.8,0.6,1.2c-11.5,21.4-27.3,40-41.3,60.9
		c-26.5-21.6-52.6-42.8-78.6-63.9C135,393.9,135,393.5,135.1,393.2z"/>
	<path class="st2" d="M274.7,260.5c-4.8,3.8-9,7.3-13.3,10.5c-10.8,8.1-21.6,16.3-32.6,24.2c-13.6,9.8-27.5,19.2-41.3,28.8
		c-1.3,0.9-2.9,1.7-3.9,2.9c-2.6,2.9-5,2-8,0.6c-17.6-8.5-35.4-16.7-53.1-25.1c-1.4-0.7-2.8-1.4-4.4-2.2
		C121,297.5,268.9,259.8,274.7,260.5z"/>
	<path class="st3" d="M524.2,312.9c-2.4,0.5-4.3,1-6.2,1.2c-8.1,0.8-16.2,1.6-24.3,2.4c-2,0.2-3.2-0.4-4-2.4
		c-3.8-9.9-7.7-19.8-11.6-29.6c-4.9-12.1-9.8-24.3-14.9-36.4c-5.8-13.8-11.9-27.4-17.6-41.3c-5.9-14.4-11.4-29-17.1-43.6
		c-0.2-0.6-0.2-1.2,0.2-2.1c1.1,1.5,2.3,3,3.3,4.5c6.4,9.9,12.6,19.9,19,29.8c4.7,7.2,9.9,14.2,14.7,21.4c12.4,18.8,25,37.5,37,56.6
		c7.2,11.6,13.3,23.8,19.9,35.8C523.1,310.2,523.5,311.3,524.2,312.9z"/>
	<path class="st1" d="M511.1,270.9c-22.3-38.7-44.5-77-66.7-115.5c1.7,1,3.4,1.9,5.1,2.9c11,6.9,22,13.8,33,20.7
		c6.8,4.2,13.9,8,20.4,12.6c8.1,5.8,15.8,12.1,23.6,18.4c0.8,0.7,1.2,2.7,0.9,3.9c-1.9,7.3-4.1,14.6-6.1,21.9
		c-3.1,11.2-6.2,22.4-9.2,33.5C511.8,269.8,511.5,270.1,511.1,270.9z"/>
	<path class="st1" d="M209.4,151.2c2.1,0.8,4.3,1.6,6.3,2.6c16.3,7.5,32.5,15.2,48.9,22.6c7,3.2,14.2,5.8,21.3,8.8
		c5.2,2.2,10.4,4.3,15.4,6.8c1,0.5,1.9,2.7,1.7,3.9c-1.2,8.4-2.7,16.7-4,25c-0.9,6.1-1.6,12.2-2.5,18.3c-0.1,1-0.4,1.9-0.5,2.9
		c-0.4,2.4-1.6,2.5-3,0.9c-3.5-3.7-7-7.4-10.3-11.3c-8.5-10-16.6-20.3-25.3-30.1c-10-11.1-20.5-21.8-30.9-32.5
		c-5.4-5.5-11.1-10.7-16.6-16c-0.4-0.3-0.6-0.8-0.9-1.2C209.1,151.7,209.3,151.4,209.4,151.2z"/>
	<path class="st2" d="M301.6,238.2c0.5-3.9,0.8-7.8,1.5-11.7c1.8-10.1,3.9-20.2,5.5-30.3c0.5-2.9,2.2-4.4,4.2-5.8
		c8-5.4,15.8-11,24.1-15.9c14-8.4,28.2-16.5,42.6-24.3c9.3-5.1,18.9-9.4,28.7-13.7c-34.5,34.8-69.3,69.3-105.7,102.1
		C302.2,238.4,301.9,238.3,301.6,238.2z"/>
	<path class="st1" d="M89.2,218.4c0.8-1.3,1.5-2.7,2.4-4c7.9-12.3,15.8-24.6,23.8-36.9c5.2-8,10.7-15.8,15.7-23.9
		c2.5-4,4.5-8.4,6.5-12.7c0.8-1.6,1.6-2.3,3.5-1.8c8.1,2.2,16.3,4.3,24.4,6.4c5.4,1.4,10.9,2.8,16.3,4.2c1.2,0.3,2.4,0.9,4.1,1.5
		c-32.4,22.7-64.3,45-96.2,67.4C89.5,218.6,89.4,218.5,89.2,218.4z"/>
	<path class="st0" d="M282.5,242.4c-37.9-24.1-76.3-47.5-117.7-67.1c2.3-1.7,3.9-2.9,5.4-4c7.2-5.2,14.4-10.5,21.6-15.7
		c1.3-1,2.5-1.8,4.2-0.1c6.4,6.6,13,13,19.7,19.4c9.2,8.9,18.6,17.5,27.7,26.5c9.4,9.3,18.6,18.8,27.9,28.2c3.2,3.2,6.5,6.3,9.7,9.5
		c0.8,0.8,1.5,1.8,2.2,2.6C282.9,242,282.7,242.2,282.5,242.4z"/>
	<path class="st2" d="M112.8,373.6c-11.6-37.7-23.1-75.4-34.7-113.2c0.4-0.2,0.9-0.4,1.3-0.6c1.4,2.1,2.8,4.1,4.1,6.2
		c8.4,14,16.4,28.3,25.2,42.1c8.3,13.1,17.3,25.7,26,38.5c1.6,2.4,3.3,4.8,4.7,7.4c0.4,0.7,0.2,2.4-0.4,2.8
		c-8.2,5.6-16.5,11.1-24.8,16.6C113.9,373.5,113.5,373.5,112.8,373.6z"/>
	<path class="st1" d="M314.2,556.9c0.9-3.9,1.8-7.8,2.8-11.8c3.8-15.2,7.7-30.4,11.6-45.7c0.1-0.4,0.3-0.8,0.3-1.3
		c-0.1-10.7,8.5-13.9,15.7-18.2c11.3-6.7,22.9-13.1,34.4-19.7c0.9-0.5,1.9-0.8,3.1-1c-19.7,34.4-44.8,65.1-66.8,97.9
		C314.9,557.2,314.5,557.1,314.2,556.9z"/>
	<path class="st2" d="M355.1,407.4c10.7,14.1,20.8,27.8,29.6,43.2c-16.6,9.4-33,18.5-49.3,27.7c-0.4-0.2-0.7-0.5-1.1-0.7
		C341.1,454.5,347.9,431.4,355.1,407.4z"/>
	<path class="st0" d="M300.9,565.7c-21.9-29.1-42.4-59.3-67.5-85.9c0.3-0.3,0.6-0.6,0.9-1c1.8,1.3,3.8,2.5,5.5,4
		c12.5,10.2,25,20.4,37.5,30.6c8.2,6.7,16.4,13.4,24.8,19.9c4,3.1,6.3,6.3,4.7,11.8c-1.9,6.6-3.1,13.4-4.6,20.2
		C301.9,565.3,301.4,565.5,300.9,565.7z"/>
	<path class="st2" d="M298,653.9c0.1-0.7,0-1.4,0.2-2.1c4.8-15.9,9.8-31.7,14.6-47.5c2.1-7,3.7-14.1,5.8-21c0.5-1.5,2.1-3.5,3.5-3.7
		c6.5-0.8,13.1-1.1,20.8-1.6c-13.7,26.7-29.3,51.1-43.8,76.2C298.7,654.1,298.3,654,298,653.9z"/>
	<path class="st1" d="M328.6,571.6c0.9-1.2,1.7-2.4,2.6-3.6c10-14,20.1-27.9,30.1-41.9c4.5-6.3,8.5-12.9,13.3-18.8
		c2.7-3.3,6.6-5.7,9-7.7c-1.5,3.1-3.6,7.5-5.9,11.9c-9.1,17.6-18.2,35.2-27.3,52.7c-0.1,0.2-0.2,0.4-0.3,0.6c-3.5,6.5-3.5,6.5-11,7
		c-3.3,0.2-6.6,0.4-9.9,0.7C328.9,572.3,328.8,572,328.6,571.6z"/>
	<path class="st0" d="M526.1,300.2c-0.3-0.7-0.5-1.4-0.9-2.1c-2.2-4-4.1-8.1-6.7-11.9c-2.9-4.3-2-8.6-0.8-13
		c3.4-12.4,6.8-24.8,10.2-37.2c0.6-2,1.2-4.1,2-6.8c5,24.2-0.9,47.1-3,70.2C526.6,299.7,526.3,299.9,526.1,300.2z"/>
</g>
</svg>
